<?xml version="1.0" encoding="utf-8"?>
<!-- Generator: Adobe Illustrator 16.0.0, SVG Export Plug-In . SVG Version: 6.00 Build 0)  -->
<!DOCTYPE svg PUBLIC "-//W3C//DTD SVG 1.1//EN" "http://www.w3.org/Graphics/SVG/1.1/DTD/svg11.dtd">
<svg version="1.1" id="Layer_1" xmlns="http://www.w3.org/2000/svg" xmlns:xlink="http://www.w3.org/1999/xlink" x="0px" y="0px"
	 width="850.39px" height="566.93px" viewBox="0 0 850.39 566.93" enable-background="new 0 0 850.39 566.93" xml:space="preserve">
<g>
	<defs>
		<rect id="SVGID_1_" x="-61.398" y="-52.034" width="945.185" height="1756.998"/>
	</defs>
	<clipPath id="SVGID_2_">
		<use xlink:href="#SVGID_1_"  overflow="visible"/>
	</clipPath>
	<path clip-path="url(#SVGID_2_)" fill="none" stroke="#000000" stroke-width="3" stroke-miterlimit="10" d="M153.985,254.633"/>
	<path clip-path="url(#SVGID_2_)" fill="none" stroke="#000000" stroke-width="3" stroke-miterlimit="10" d="M422.02,89.098"/>
	<path clip-path="url(#SVGID_2_)" fill="none" stroke="#000000" stroke-width="3" stroke-miterlimit="10" d="M690.053,254.633"/>
</g>
<text transform="matrix(1 0 0 1 321.751 425.6934)" font-family="'dahliascript'" font-size="333.9719"> </text>
<text transform="matrix(1 0 0 1 647.0391 425.6934)" font-family="'dahliascript'" font-size="333.9719"> </text>
<g>
	<defs>
		<rect id="SVGID_3_" x="-61.398" y="-52.034" width="945.185" height="1756.998"/>
	</defs>
	<clipPath id="SVGID_4_">
		<use xlink:href="#SVGID_3_"  overflow="visible"/>
	</clipPath>
</g>
<g>
	<g>
		<path d="M219.134,317.195c-25.047,39.408-60.782-38.072-76.145-57.777c0,2.672-0.334,5.01-0.668,7.682l2.671-1.002
			c2.338-0.668,3.674,3.005,1.336,3.673l-4.341,1.67c-1.67,16.031-3.674,43.082-16.699,54.104
			c-15.362,13.358-36.068-2.004-30.057-21.709c3.006-9.685,12.691-21.04,33.063-31.059c0.668-4.007,1.002-8.349,1.336-12.691
			c-6.68,1.336-13.359-1.669-12.691-9.017c0.668-7.347,7.347-9.017,13.693-8.683c0.668-21.374,0.334-43.082,0-64.456
			c0-12.691,13.692-2.338,13.358,0c0.334,23.044,0.668,46.088-0.334,69.132c0.668,0.334,1.336,0.667,2.004,1.335
			c24.714-14.694,46.756-37.404,53.101-66.125c0.668-2.338,4.342-1.67,3.674,1.002c-6.345,29.389-28.053,52.433-53.435,67.795
			c18.034,15.363,46.088,96.851,67.128,64.122C217.465,312.854,220.804,315.191,219.134,317.195z M127.961,277.453
			c-18.034,9.018-26.384,19.036-29.055,27.719c-3.674,12.691,8.683,27.053,19.036,12.023
			C124.287,308.178,126.625,288.475,127.961,277.453z M120.614,250.735c-0.668,3.34,2.337,7.348,9.351,5.344
			c0-2.672,0.334-5.344,0.334-8.35C124.621,245.058,121.282,247.729,120.614,250.735z"/>
		<path d="M311.642,293.817c-5.343,8.683-17.7,24.714-29.055,23.044c-5.01-0.668-8.683-5.678-9.685-16.698
			c-1.336-14.36,0.334-29.724,0.668-44.084c-5.678,13.358-11.355,31.06-19.705,42.748c-23.377,32.396-49.761-18.369-26.717-42.08
			c11.355-11.689,32.061-16.365,42.08-1.67c1.336-3.34,3.006-8.683,5.01-11.021c5.343-6.68,12.69,1.002,12.69,8.015
			c0,14.361-1.335,28.053-1.001,42.748c0.667,25.382,15.362,7.681,21.708-3.006c6.346-10.687,12.357-24.379,17.701-35.066
			c0,0,0.334,0,4.007,1.67C324.667,268.436,318.321,282.462,311.642,293.817z M265.554,257.749
			c-9.351-15.697-30.057,0.668-33.73,15.696c-4.008,15.363,5.009,43.416,19.704,20.706c6.679-10.019,11.355-23.378,15.696-34.399
			C266.222,259.418,266.222,258.417,265.554,257.749z"/>
	</g>
	<g>
		<path d="M443.898,269.104h-1.336c-3.34,14.695-6.68,34.398-17.033,46.756c-26.717,31.727-66.126-9.686-28.053-34.733
			c7.681-5.009,18.035-9.351,31.727-13.024c7.014-30.392,12.691-61.785,16.699-92.51c0.334-2.338,3.674-2.338,3.674,0
			l10.686,135.591l39.076-137.929c0.668-2.337,4.674-1.669,4.34,0.668c-1.002,33.397-5.008,106.202,7.682,138.263
			c6.012,15.363,27.053,22.376,37.738,3.34c3.34-6.012,6.012-14.36,5.01-25.381c-0.334-2.672,3.674-3.006,4.008-0.334
			c1.002,12.021-1.336,21.373-5.678,28.053c-13.023,20.706-36.402,15.362-45.086-3.674c-9.35-20.038-10.686-55.105-10.352-85.496
			l-26.051,92.51c-2.004,6.012-14.025,10.354-14.025,1.002l-6.68-89.838c-2.004,11.021-4.342,22.376-6.68,32.729
			C445.902,265.096,446.236,268.77,443.898,269.104z M399.814,284.467c-32.395,22.041-0.334,53.101,15.363,27.385
			c6.679-11.021,10.687-28.721,13.024-39.408C415.845,275.783,406.494,279.791,399.814,284.467z"/>
	</g>
	<g>
		<path d="M776.533,258.417c-9.016,19.37-19.703,40.41-38.74,50.763c-20.705,11.355-36.068,5.678-43.416-6.68
			c-8.684-14.359-6.68-32.729,2.004-45.753c5.344-8.016,13.359-13.693,22.711-15.363c13.357-2.338,30.391,6.012,23.043,21.04
			c-6.346,12.691-29.055,23.378-39.742,25.716c2.338,19.369,18.035,23.711,33.73,16.029c17.701-8.349,28.055-30.725,36.402-47.423
			L776.533,258.417z M702.059,283.798c8.35-2.004,24.381-10.353,31.727-19.036c8.35-10.019-0.668-17.7-11.688-14.361
			C707.402,254.743,701.725,270.105,702.059,283.798z M723.434,218.34c3.34-2.671,12.355-12.023,5.008-14.694
			c-5.676,4.675-11.688-0.334-11.02-6.012c0.334-4.341,4.008-8.683,8.684-9.017c6.344-0.334,12.021,6.345,12.689,12.357
			c0.668,8.349-6.346,16.698-13.691,21.374C722.766,224.018,721.764,219.342,723.434,218.34z"/>
	</g>
	<path d="M649.572,324.472c2.037,2.695,2.066,3.248,0.031,5.711c-0.553,0.668-0.576,1.363-0.582,2.113
		c-0.014,1.969,0.033,3.939-0.02,5.908c-0.066,2.482,0.086,4.584,2.063,6.73c3.184,3.457,2.211,10.676-1.254,13.877
		c-1.172,1.08-1.129,4.932,0.066,6.234c1.949,2.121,1.941,3.275-0.033,5.42c-1.078,1.172-1.287,3.668-0.15,4.49
		c3.422,2.471,4.783,6.203,6.115,9.883c1.721,4.762,2.557,9.703,3.223,14.766c1.217,9.23-1.105,17.197-6.588,24.457
		c-1.107,1.465-2.465,2.684-4.172,3.43c-2.5,1.092-4.396,0.496-5.836-1.822c-1.439-2.316-1.949-4.947-2.197-7.578
		c-1.074-11.375-0.535-22.701,1.961-33.844c0.738-3.303,1.408-6.846,4.25-9.455c1.137-1.043,0.998-3.027-0.17-4.373
		c-1.557-1.791-1.635-3.418-0.057-5.232c1.172-1.346,1.09-5.596,0.055-7.322c-2.602-4.342-2.615-8.756-0.135-13.127
		c0.594-1.043,0.881-2.051,0.871-3.213c-0.021-2.424-0.35-4.91,0.084-7.256c0.521-2.838-1.58-4.594-2.164-6.939
		c-0.236-0.945-1.205-0.279-1.758-0.072c-5.627,2.117-11.424,3.523-17.395,4.197c-1.426,0.16-2.867,0.229-4.301,0.281
		c-1.18,0.043-1.664,0.199-1.729,1.758c-0.076,1.869,0.592,3.59,0.605,5.203c0.023,2.762-0.043,5.969-1.24,8.346
		c-0.98,1.945-1.428,3.658-1.432,5.668c-0.012,3.939,0.02,7.879-0.018,11.818c-0.012,1.262,0.119,2.326,1.266,3.182
		c1.146,0.854,1.459,2.26,0.875,3.492c-0.617,1.295-0.514,2.377-0.088,3.66c0.324,0.979,0.639,2.238,0.295,3.111
		c-1.166,2.967,0.301,6.076-0.709,9.01c-0.086,0.248-0.008,0.623,0.125,0.867c1.266,2.307,1.742,4.852,2.504,7.299
		c0.896,2.881,1.691,5.76,2.166,8.705c1.201,7.471,1.824,14.994,2.213,22.564c0.355,6.895,0.557,13.748-0.049,20.621
		c-0.221,2.498-0.65,4.965-1.707,7.26c-1.455,3.162-4.063,3.787-6.83,1.676c-2.227-1.697-3.674-4.014-4.949-6.434
		c-3.951-7.504-6.111-15.576-6.039-23.986c0.094-11.076,1.154-22.1,5.156-32.604c0.404-1.057,0.816-2.145,1.434-3.082
		c0.875-1.326,1.574-2.541,0.451-4.08c-0.229-0.314-0.301-0.969-0.133-1.314c1.771-3.686-1.35-7.787,1.004-11.422
		c0.324-0.498-0.268-0.967-0.504-1.426c-0.709-1.381-0.551-2.744,0.537-3.758c0.963-0.898,1.063-1.873,1.055-3.051
		c-0.037-4.848-0.025-9.697,0.021-14.545c0.01-0.973-0.088-1.77-0.996-2.342c-0.834-0.525-1.445-1.551-1.127-2.318
		c0.877-2.119,0.305-3.98-0.41-5.928c-0.162-0.439-0.111-1.25,0.182-1.52c1.854-1.693,0.139-3.723,0.609-5.533
		c0.174-0.666-0.443-0.867-1.021-0.902c-6.623-0.396-13-1.926-19.311-3.916c-0.947-0.299-2.379-1.607-2.754-0.861
		c-0.793,1.566-2.213,2.965-2.283,4.791c-0.135,3.48-0.041,6.969-0.053,10.453c-0.002,0.729,0.344,1.262,0.775,1.824
		c3.273,4.244,3.244,9.971-0.031,14.297c-1.162,1.533-1.066,6.432,0.154,7.9c1.615,1.943,1.654,3.035-0.027,4.971
		c-1.344,1.547-1.426,3.521-0.426,4.813c3.008,3.889,3.92,8.445,4.662,13.027c1.742,10.725,2.434,21.504,0.777,32.324
		c-0.264,1.73-0.734,3.41-1.604,4.943c-1.465,2.588-3.66,3.281-6.352,2c-1.896-0.902-3.324-2.377-4.527-4.051
		c-4.199-5.832-6.57-12.375-6.32-19.541c0.291-8.342,1.879-16.486,5.814-24c0.955-1.82,2.02-3.555,3.813-4.715
		c1.682-1.088,1.879-2.977,0.516-4.514c-2.072-2.338-2.068-3.154,0.035-5.576c1.129-1.299,1.119-6.195-0.016-7.432
		c-3.316-3.619-3.512-10.49-0.404-14.271c1.834-2.23,1.699-12.318-0.201-14.564c-1.061-1.256-1.348-2.699-0.211-3.904
		c1.119-1.186,0.727-1.533-0.473-2.156c-8.65-4.506-16.033-10.588-22.1-18.224c-9.93-12.503-15.225-26.703-15.592-42.726
		c-0.379-16.593,4.303-31.579,14.389-44.727c11.889-15.496,27.555-24.748,46.977-27.438c2.396-0.332,4.809-0.598,7.223-0.725
		c1.484-0.078,2.002-0.689,1.945-2.107c-0.068-1.664,0.184-3.361-0.059-4.992c-0.402-2.729-3.354-5.023-1.365-8.169
		c-1.783-2.118-1.922-4.197,0.146-6.227c0.051-0.05,0.117-0.16,0.098-0.197c-2.031-3.63,1.49-6.463,1.342-10.043
		c-0.467-11.344-0.209-22.719-0.143-34.082c0.012-1.666-0.41-2.54-2.053-3.2c-3.076-1.235-4.475-4.313-3.846-7.655
		c0.539-2.867,3.254-5.146,6.307-5.292c3.342-0.16,5.988,1.635,6.951,4.716c0.963,3.089-0.23,6.554-3.17,7.96
		c-1.838,0.88-2.256,1.983-2.244,3.856c0.076,11.741,0.045,23.484,0.031,35.226c-0.002,1.386-0.027,2.687,1.289,3.649
		c0.672,0.492,1.195,1.496,0.844,2.222c-0.906,1.858-0.6,3.361,0.387,5.126c0.906,1.624-1.02,2.879-1.262,4.265
		c-0.223,1.278,1.828,2.93,0.447,4.313c-2.01,2.017-1.684,4.378-1.693,6.757c-0.014,3.82-0.008,3.895,3.779,4.129
		c7.328,0.455,14.422,2.016,21.137,4.908c25.393,10.938,40.443,30.152,44.018,57.529c2.822,21.626-3.824,40.677-18.543,56.843
		C664.02,315.612,657.184,320.552,649.572,324.472 M559.182,283.617c0.109-4.448,1.57-7.727,3.922-10.608
		c0.813-0.996,0.633-1.448-0.41-2.043c-2.045-1.166-3.943-2.536-5.402-4.445c-3.045-3.989-2.902-7.75,0.461-11.478
		c1.279-1.416,2.645-2.762,4.398-3.528c1.801-0.788,1.686-1.625,0.566-2.976c-1.26-1.516-2.184-3.263-2.801-5.164
		c-1.543-4.752-0.004-8.526,4.479-10.793c1.768-0.895,3.643-1.5,5.623-1.693c1.59-0.156,2.287-0.682,1.691-2.467
		c-0.566-1.713-0.781-3.539-0.693-5.379c0.252-5.272,3.49-8.552,8.771-8.861c1.836-0.108,3.674,0.087,5.381,0.666
		c1.902,0.644,2.395-0.169,2.588-1.803c0.268-2.278,0.951-4.437,2.17-6.4c2.133-3.438,5.42-4.803,9.338-3.832
		c1.926,0.479,3.682,1.348,5.326,2.469c2.529,1.727,2.514,1.688,4.197-0.73c0.777-1.114,1.623-2.197,2.557-3.183
		c3.557-3.752,7.916-4.043,11.998-0.925c1.725,1.316,3.102,2.951,4.076,4.821c0.967,1.851,1.832,1.681,3.197,0.507
		c0.906-0.778,1.99-1.393,3.076-1.908c6.336-3.01,11.344-0.874,13.553,5.805c0.566,1.707,0.348,4.145,1.465,5.076
		c1.33,1.109,3.529-0.421,5.395-0.558c6.313-0.464,10.281,2.815,10.682,9.003c0.113,1.744-0.123,3.51-0.684,5.15
		c-0.648,1.893,0.143,2.482,1.834,2.589c1.377,0.085,2.674,0.511,3.947,1.006c6.209,2.413,8.191,7.401,5.229,13.325
		c-0.873,1.744-2.967,3.58-2.678,5c0.293,1.428,2.957,2.279,4.412,3.574c5.096,4.532,5.025,10.154-0.15,14.599
		c-1.084,0.932-2.279,1.777-3.535,2.451c-1.242,0.666-1.195,1.276-0.418,2.267c2.373,3.021,4.018,6.331,3.561,10.897
		c9.57-22.948,4.404-53.718-19.342-72.714c-22.629-18.102-55.367-18.104-78.645,0.392
		C555.234,230.063,549.881,260.394,559.182,283.617 M628.377,261.254c0.074-6.023-4.545-10.793-10.445-10.785
		c-5.773,0.007-10.521,4.672-10.682,10.492c-0.154,5.675,4.621,10.495,10.492,10.587
		C623.709,271.643,628.305,267.194,628.377,261.254 M588.938,232.159c-0.543-3.661-1.41-7.028-1.545-10.485
		c-0.225-5.724-0.463-5.979-6.303-6.299c-0.604-0.033-1.213-0.041-1.813,0.016c-4.092,0.394-6.637,2.915-7.031,6.992
		c-0.215,2.211,0.184,4.36,0.764,6.483c0.23,0.849,0.57,1.622,1.615,1.595C579.389,230.336,584.053,231.145,588.938,232.159
		 M588.982,289.866c-3.922,0.977-7.504,1.535-11.121,1.766c-4.887,0.311-5.316,0.67-5.629,5.644
		c-0.051,0.829-0.084,1.676,0.02,2.495c0.393,3.075,1.748,5.463,4.889,6.469c3.02,0.965,5.982,0.443,8.924-0.395
		c0.801-0.229,1.314-0.735,1.275-1.643C587.131,299.486,588.016,294.882,588.982,289.866 M679.514,260.98
		c-0.031-0.182-0.074-0.48-0.129-0.777c-0.83-4.457-4.242-6.566-7.797-8.533c-0.674-0.371-1.145,0.082-1.574,0.527
		c-2.904,3.008-6.188,5.544-9.697,7.795c-1.139,0.731-1.273,1.245-0.014,2.1c2.875,1.95,5.705,3.977,8.209,6.411
		c2.635,2.562,2.645,2.554,5.73,0.405c0.434-0.302,0.871-0.606,1.266-0.957C677.586,266.106,679.303,264.042,679.514,260.98
		 M602.246,298.82c-3.156,2.062-6.035,3.995-9.156,5.524c-5.17,2.529-5.313,2.959-3.186,8.479c0.164,0.424,0.336,0.846,0.539,1.25
		c1.654,3.299,4.1,4.648,7.758,4.193c2.969-0.369,5.33-2.029,7.631-3.779c0.652-0.496,0.635-1.115,0.322-1.822
		C604.248,308.351,603.242,303.771,602.246,298.82 M556.285,261.199c0.051,0.322,0.078,0.858,0.221,1.361
		c1.104,3.924,4.205,5.948,7.484,7.778c0.711,0.396,1.309-0.021,1.822-0.521c3.041-2.975,6.348-5.619,9.951-7.881
		c1.063-0.667,0.973-1.077-0.031-1.741c-2.906-1.923-5.699-4.005-8.271-6.367c-2.975-2.733-2.982-2.751-6.221-0.322
		c-0.906,0.679-1.793,1.405-2.574,2.222C557.271,257.188,556.387,258.92,556.285,261.199 M617.752,199.436
		c-0.344,0.063-0.873,0.111-1.377,0.254c-4.006,1.134-5.996,4.354-7.887,7.67c-0.395,0.693,0.063,1.152,0.5,1.571
		c3.082,2.938,5.693,6.256,7.943,9.856c0.814,1.308,1.281,1.049,2.02-0.098c2.252-3.501,4.771-6.809,7.775-9.706
		c0.73-0.705,0.893-1.312,0.305-2.151c-0.65-0.926-1.213-1.914-1.873-2.832C623.371,201.515,621.143,199.703,617.752,199.436
		 M663.516,223.916c0.242-5.25-2.75-8.457-8.006-8.554c-1.826-0.034-3.592,0.384-5.363,0.772c-1.166,0.257-1.629,0.9-1.604,2.07
		c0.09,4.18-0.617,8.277-1.441,12.348c-0.275,1.363,0.082,1.592,1.311,1.322c3.027-0.662,6.08-1.192,9.178-1.328
		c5.379-0.233,5.379-0.201,5.852-5.728C663.467,224.519,663.492,224.217,663.516,223.916 M571.236,290.182
		c1.068,0.311,1.613-0.201,1.947-1.091c1.467-3.918,3.643-7.45,6.01-10.867c0.867-1.254,0.443-1.721-0.854-1.928
		c-2.986-0.477-5.895-1.27-8.758-2.231c-5.16-1.733-5.727-1.481-7.982,3.594c-0.275,0.619-0.504,1.263-0.691,1.914
		c-1.092,3.8,0.322,7.108,3.865,8.873C566.813,289.462,568.986,290.089,571.236,290.182 M655.646,245.377
		c2.094,0.459,3.799,0.778,5.475,1.211c1.754,0.453,3.496,0.965,5.211,1.539c5.021,1.682,5.586,1.443,7.828-3.524
		c0.063-0.138,0.113-0.28,0.17-0.42c2.152-5.216,0.535-8.997-4.691-11.087c-1.631-0.652-3.35-0.899-5.043-1.264
		c-0.846-0.182-1.486,0.073-1.832,0.914C660.959,237.156,658.59,241.258,655.646,245.377 M618.121,322.667
		c0.164-0.037,0.529-0.121,0.896-0.205c4.104-0.922,6.207-4.053,8.127-7.377c0.535-0.924-0.041-1.574-0.65-2.18
		c-2.91-2.891-5.402-6.119-7.637-9.548c-0.662-1.015-1.137-1.325-1.916-0.099c-2.154,3.391-4.578,6.574-7.414,9.434
		c-0.594,0.598-1.074,1.25-0.891,2.205C609.262,318.126,614.691,322.694,618.121,322.667 M675.205,282.712
		c-0.043-4.194-1.885-6.875-3.855-9.492c-0.65-0.863-1.459-0.532-2.258-0.207c-3.729,1.515-7.59,2.576-11.547,3.271
		c-1.502,0.264-1.736,0.842-0.846,2.098c1.752,2.472,3.328,5.053,4.625,7.802c2.252,4.776,2.678,4.934,7.797,3.069
		c0.85-0.311,1.707-0.657,2.471-1.131C673.848,286.721,675.322,284.816,675.205,282.712 M638.66,318.364
		c1.828,0.078,3.471-0.404,4.766-1.715c2.535-2.566,3.381-5.805,3.557-9.283c0.053-1.027-0.658-1.419-1.471-1.757
		c-3.637-1.515-7.064-3.427-10.277-5.696c-1.205-0.852-1.805-0.832-2.1,0.75c-0.75,4.01-1.727,7.963-3.389,11.713
		c-0.375,0.844-0.416,1.627,0.375,2.24C632.656,316.575,635.316,318.259,638.66,318.364 M639.449,203.676
		c-3.387,0.084-6.029,1.48-8.559,3.207c-1.236,0.843-1.617,1.779-0.988,3.255c1.545,3.618,2.559,7.411,3.215,11.288
		c0.262,1.546,0.842,1.727,2.08,0.836c2.516-1.811,5.182-3.381,7.982-4.713c4.383-2.086,4.48-2.287,3.176-6.977
		c-0.494-1.771-1.324-3.359-2.561-4.734C642.564,204.47,641.006,203.824,639.449,203.676 M663.623,298.064
		c-0.213-1.233-0.518-3.093-0.861-4.944c-0.178-0.938-0.756-1.431-1.752-1.41c-4.332,0.086-8.584-0.573-12.799-1.477
		c-1.293-0.275-1.453,0.133-1.16,1.261c0.797,3.08,1.115,6.242,1.4,9.398c0.453,5.004,0.416,5.007,5.449,5.769
		C659.58,307.522,663.324,304.449,663.623,298.064 M560.467,239.86c0.232,3.666,1.885,6.511,4.031,9.126
		c0.432,0.526,0.984,0.659,1.627,0.389c3.982-1.687,8.125-2.817,12.373-3.582c1.221-0.221,1.471-0.738,0.709-1.832
		c-2.424-3.48-4.584-7.115-6.109-11.094c-0.309-0.804-0.832-1.236-1.738-1.074c-2.307,0.412-4.635,0.776-6.707,1.957
		C562.215,235.138,560.607,237.118,560.467,239.86 M596.592,203.644c-1.734,0.204-3.373,0.827-4.656,2.285
		c-2.217,2.52-2.793,5.633-3.297,8.782c-0.152,0.946,0.463,1.354,1.211,1.66c3.863,1.581,7.555,3.49,10.908,5.982
		c1.254,0.931,1.711,0.472,1.896-0.8c0.604-4.144,1.854-8.101,3.443-11.955c0.338-0.822,0.256-1.405-0.418-1.999
		C603.105,205.33,600.174,203.899,596.592,203.644 M579.066,275.264c1.443,0.379,1.172-0.525,0.916-1.247
		c-1.191-3.362-1.783-6.846-2.113-10.377c-0.102-1.1-0.48-1.338-1.41-0.76c-3.34,2.078-6.408,4.504-9.26,7.209
		c-0.867,0.82-0.875,1.459,0.381,1.98C571.293,273.611,575.178,274.505,579.066,275.264 M578.193,290.476
		c2.102-0.317,5.459-0.835,8.82-1.326c1.25-0.182,1.68-0.605,0.686-1.698c-2.305-2.534-4.115-5.415-5.637-8.467
		c-0.697-1.397-1.207-1.245-1.977-0.082c-1.836,2.78-3.594,5.601-4.99,8.633C573.758,290.442,573.814,290.538,578.193,290.476
		 M577.979,231.688c-1.117,0-1.795,0.015-2.475-0.003c-1.225-0.033-1.422,0.523-0.973,1.559c1.566,3.61,3.461,7.033,5.748,10.239
		c0.73,1.022,1.234,0.878,1.73-0.198c1.463-3.174,3.379-6.061,5.707-8.662c0.857-0.959,0.635-1.346-0.555-1.601
		C583.986,232.34,580.779,231.916,577.979,231.688 M588.525,301.147c0,0.527,0.043,1.061-0.008,1.583
		c-0.18,1.813,0.357,2.336,2.145,1.485c3.211-1.528,6.287-3.271,9.25-5.229c1.119-0.739,1.678-1.262-0.021-2.055
		c-3.023-1.41-5.748-3.315-8.238-5.531c-1.018-0.903-1.563-1.001-1.857,0.582C589.232,295.021,588.652,298.05,588.525,301.147
		 M601.389,224.252c-3.691-2.711-7.299-4.857-11.197-6.527c-1.152-0.495-1.648-0.292-1.664,1.05
		c-0.045,3.944,0.516,7.806,1.375,11.64c0.234,1.053,0.666,1.327,1.482,0.506C594.178,228.104,597.682,226.334,601.389,224.252
		 M580.121,247.461c-0.102-1.14-0.855-0.574-1.34-0.5c-3.828,0.584-7.486,1.78-11.123,3.065c-1.561,0.551-1.117,1.263-0.273,2.092
		c2.707,2.662,5.676,4.978,8.91,6.974c1.174,0.724,1.473,0.591,1.596-0.793c0.299-3.39,0.871-6.741,1.965-9.983
		C579.951,248.03,580.035,247.74,580.121,247.461 M616.641,301.396c-4.191-0.424-8-0.952-11.643-2.301
		c-0.836-0.308-1.564-0.331-1.314,0.942c0.758,3.863,1.777,7.654,3.172,11.34c0.49,1.301,0.982,1.088,1.889,0.252
		C611.889,308.737,614.299,305.312,616.641,301.396 M603.873,221.318c-0.43,1.896,0.313,1.821,1.287,1.539
		c3.346-0.969,6.693-1.95,10.225-1.918c1.201,0.011,1.271-0.471,0.682-1.374c-2.117-3.24-4.398-6.341-7.156-9.082
		c-1.014-1.009-1.604-0.89-2.096,0.417C605.475,214.448,604.391,218.065,603.873,221.318 M632.164,298.833
		c-3.99,1.361-7.863,2.242-11.869,2.429c-1.188,0.055-0.941,0.704-0.525,1.358c2.111,3.327,4.494,6.441,7.309,9.215
		c0.793,0.781,1.355,0.848,1.793-0.34C630.354,307.468,631.66,303.398,632.164,298.833 M634.455,297.98
		c3.818,2.66,7.432,4.805,11.307,6.503c0.936,0.41,1.619,0.449,1.59-0.888c-0.09-4.003-0.578-7.956-1.447-11.862
		c-0.143-0.645-0.43-1.256-1.189-0.529C641.805,293.986,638.307,295.896,634.455,297.98 M632.137,223.148
		c-0.582-4.523-1.703-8.572-3.273-12.512c-0.404-1.01-0.887-1.103-1.656-0.383c-2.957,2.763-5.287,6.023-7.486,9.388
		c-0.521,0.798-0.332,1.305,0.688,1.29C624.322,220.875,628.016,222.033,632.137,223.148 M647.34,220.45
		c0.086-3.431-0.041-3.513-2.736-2.305c-3.121,1.397-5.988,3.228-8.836,5.098c-0.953,0.625-1.168,1.11,0.045,1.669
		c3.045,1.401,5.801,3.262,8.348,5.43c1.033,0.881,1.564,0.947,1.904-0.62C646.758,226.529,647.01,223.293,647.34,220.45
		 M658.02,290.483c4.033,0.088,4.049,0.055,2.596-3.057c-1.314-2.816-2.916-5.465-4.613-8.063c-0.846-1.297-1.426-1.358-2.133,0.107
		c-1.389,2.876-3.189,5.487-5.342,7.848c-0.967,1.06-0.867,1.597,0.639,1.897C652.283,289.839,655.426,290.234,658.02,290.483
		 M657.855,231.705c-2.314,0.137-5.377,0.562-8.416,1.18c-1.447,0.294-1.82,0.894-0.723,2.091c2.16,2.356,3.916,5.002,5.289,7.881
		c0.76,1.592,1.316,0.969,1.971-0.029c1.703-2.594,3.307-5.241,4.621-8.058C662.047,231.666,662.059,231.672,657.855,231.705
		 M657.275,247.01c-0.729-0.153-1.471-0.301-1.084,0.891c1.096,3.379,1.854,6.819,2.082,10.378c0.07,1.097,0.752,1.12,1.59,0.601
		c3.215-1.994,6.121-4.375,8.842-6.998c1.084-1.045,0.465-1.502-0.551-1.881C664.619,248.676,661.012,247.617,657.275,247.01
		 M655.891,275.361c4.496-0.739,8.574-1.729,12.5-3.348c0.99-0.409,1.172-0.859,0.406-1.627c-2.684-2.693-5.65-5.035-8.854-7.079
		c-0.756-0.482-1.59-0.6-1.66,0.543C658.053,267.704,657.08,271.406,655.891,275.361 M645.52,276.384
		c0.977,0,1.582,0.016,2.188-0.004c1.344-0.045,2.475-0.328,3.137-1.76c0.672-1.455-0.133-2.259-0.979-3.156
		c-0.934-0.993-1.828-2.021-2.758-3.018c-0.473-0.508-1.021-1.002-1.777-0.754c-1.797,0.589-3.576,1.23-5.354,1.871
		c-0.385,0.139-0.693,0.488-0.508,0.881c0.863,1.846,1.594,3.801,2.754,5.447C643.029,277.036,644.648,276.232,645.52,276.384
		 M601.451,241.14c-0.041-3.683-0.014-3.765-3.744-4.966c-1.627-0.523-3.293-2.248-5.123-0.187c-1.67,1.88-0.078,3.431,0.461,4.993
		c1.49,4.311,1.166,3.525,5.059,3.614C601.49,244.672,601.49,244.654,601.451,241.14 M633.352,288.8
		c-0.322-1.152,0.525-2.683-0.605-3.435c-1.68-1.118-3.621-1.85-5.461-2.723c-0.295-0.14-0.648-0.024-0.762,0.292
		c-0.691,1.916-1.564,3.802-1.951,5.781c-0.279,1.424,1.232,2.218,2.215,2.916c1.402,0.996,2.201,3.42,4.643,2.34
		C633.836,292.905,632.889,290.61,633.352,288.8 M590.635,276.328c0.822-0.196,2.57,0.841,3.471-1.06
		c0.643-1.36,1.256-2.736,1.91-4.092c0.395-0.814,0.326-1.314-0.596-1.786c-4.807-2.468-5.754-2.302-9.309,1.87
		c-0.146,0.172-0.287,0.35-0.438,0.518c-0.66,0.734-1.318,1.402-0.793,2.575c0.512,1.144,1.238,1.886,2.502,1.964
		C588.281,276.374,589.188,276.328,590.635,276.328 M633.193,233.732c0-1.363,0.016-2.191-0.004-3.021
		c-0.033-1.252-0.613-2.064-1.793-2.611c-1.221-0.566-1.984-0.043-2.793,0.73c-1.033,0.99-2.102,1.948-3.168,2.903
		c-0.813,0.726-1.129,1.511-0.674,2.606c0.549,1.32,0.961,2.699,1.436,4.05c0.207,0.582,0.469,1.306,1.223,0.989
		c1.805-0.758,3.674-1.468,5.277-2.549C633.896,236.021,633.045,234.422,633.193,233.732 M589.9,245.865
		c-1.057,0-2.131-0.123-3.164,0.029c-1.566,0.229-2.527,2.373-1.746,3.658c2.879,4.732,4.996,5.421,10.055,3.266
		c0.207-0.089,0.43-0.148,0.631-0.247c0.461-0.224,0.607-0.575,0.547-1.104C595.842,248.058,593.256,245.715,589.9,245.865
		 M645.793,245.799c-2.66-0.826-4.33,0.572-5.189,3.385c-0.217,0.712-0.658,1.355-1.002,2.027c-0.338,0.666-0.154,1.086,0.502,1.471
		c4.021,2.359,6.053,2.063,9.221-1.43c1.006-1.111,2.168-2.106,1.41-3.941c-0.758-1.832-2.285-1.387-3.652-1.507
		C646.783,245.777,646.479,245.799,645.793,245.799 M598.322,277.572c-4.186,0.167-4.188,0.166-5.576,4.185
		c-0.27,0.783-0.623,1.555-0.764,2.362c-0.289,1.669,0.975,2.957,2.135,2.884c2.291-0.145,4.582-1.012,6.539-2.287
		c1.416-0.922,0.717-2.648,0.773-4.018C601.559,277.448,601.504,277.446,598.322,277.572 M618.01,296.488
		c0.775,0.05,1.535-0.089,1.918-0.873c0.859-1.765,1.674-3.554,2.494-5.339c0.295-0.641,0.037-1.154-0.404-1.641
		c-1.123-1.229-2.219-2.48-3.334-3.715c-0.432-0.479-0.789-0.776-1.496-0.201c-4.234,3.445-4.523,4.635-2.107,9.484
		c0.168,0.34,0.359,0.668,0.51,1.014C616.049,296.29,616.902,296.604,618.01,296.488 M605.387,227.861
		c-1.209,0.405-2.473,0.594-2.717,2.276c-0.814,5.67-0.305,6.678,4.809,8.88c0.139,0.059,0.279,0.113,0.412,0.185
		c0.748,0.401,1.225,0.186,1.646-0.553c2.545-4.453,2.301-5.89-1.736-9.278C607.078,228.765,606.516,227.847,605.387,227.861
		 M589.084,256.393c-0.182,0.064-0.402,0.123-0.607,0.216c-1.584,0.72-3.205,1.372-4.738,2.187c-2.09,1.11-2.039,3.394,0.035,4.604
		c5.178,3.021,5.178,3.021,9.557-1.005c0.113-0.102,0.223-0.211,0.348-0.292c1.088-0.702,0.912-1.395,0.035-2.149
		c-1.146-0.987-2.26-2.014-3.391-3.021C589.98,256.627,589.615,256.357,589.084,256.393 M653.346,260.981
		c0.088-1.005-0.332-1.647-1.225-2.19c-4.934-3.005-5.395-2.986-9.625,0.834c-0.279,0.252-0.559,0.506-0.85,0.746
		c-0.516,0.424-0.463,0.788-0.066,1.329c2.896,3.949,4.795,4.432,9.234,2.262c0.406-0.197,0.799-0.428,1.213-0.607
		C653.076,262.897,653.451,262.076,653.346,260.981 M634.436,280.854c0.424,1.213-0.865,3.247,1.217,4.192
		c1.646,0.748,3.367,1.377,5.113,1.847c1.844,0.498,3.395-1.165,2.971-3.013c-1.271-5.523-1.777-5.967-7.256-6.351
		c-0.152-0.011-0.311-0.001-0.453-0.042c-1.627-0.46-2.061,0.223-1.709,1.735C634.42,279.658,634.389,280.126,634.436,280.854
		 M634.432,240.859c-0.131,3.785-0.131,3.785,3.584,3.735c0.678-0.009,1.355-0.042,2.033-0.015c0.963,0.041,1.555-0.398,1.873-1.291
		c0.604-1.701,1.289-3.377,1.818-5.1c0.377-1.225-0.938-3.282-2.105-3.107c-2.307,0.344-4.541,1.182-6.535,2.357
		C633.832,238.186,634.697,239.825,634.432,240.859 M617.6,225.444c-0.738-0.043-1.363,0.158-1.695,0.868
		c-0.83,1.775-1.631,3.564-2.463,5.34c-0.291,0.623-0.209,1.158,0.24,1.664c1.102,1.24,2.203,2.48,3.293,3.732
		c0.643,0.737,1.188,0.636,1.898,0.008c4.152-3.665,4.264-4.148,1.795-9.106c-0.168-0.337-0.357-0.666-0.502-1.014
		C619.689,225.776,618.701,225.51,617.6,225.444 M602.619,289.481c0.342,1.365-0.738,3.385,1.49,4.367
		c1.096,0.484,2.119,0.438,2.908-0.442c1.453-1.621,3.822-2.466,4.254-4.954c0.021-0.129-0.094-0.281-0.146-0.424
		c-0.508-1.42-1.01-2.842-1.527-4.258c-0.25-0.682-0.582-1.166-1.488-1.005C604.434,283.421,602.539,285.632,602.619,289.481
		 M561.018,287.57c2.641,5.904,5.9,11.28,10.703,15.685c-1.215-3.351-0.756-6.614,0.02-9.871c0.246-1.031,0.111-1.906-1.092-2.037
		C567.117,290.962,563.939,289.753,561.018,287.57 M674.857,287.251c-2.633,2.469-5.82,3.545-9.238,4
		c-1.482,0.197-1.984,0.764-1.568,2.219c0.973,3.402,1.113,6.805-0.197,10.225C668.611,298.923,672.221,293.439,674.857,287.251
		 M615.553,323.638c-3.377-1.387-5.637-3.965-7.346-7.059c-0.74-1.342-1.336-1.424-2.545-0.48c-3.041,2.369-6.416,3.926-10.455,3.49
		C601.727,322.147,608.434,323.661,615.553,323.638 M622.836,114.496c-0.018-2.539-2.107-4.635-4.586-4.601
		c-2.557,0.034-4.631,2.063-4.674,4.571c-0.043,2.622,2.076,4.707,4.764,4.687C620.902,119.134,622.857,117.109,622.836,114.496
		 M575.854,307.384c4.588,4.701,9.934,8.141,15.941,10.623c-2.631-2.639-3.691-5.922-4.197-9.416
		c-0.199-1.369-0.648-1.811-2.049-1.41C582.385,308.083,579.18,308.378,575.854,307.384 M640.242,319.685
		c-3.998,0.303-7.23-1.428-10.234-3.709c-1.004-0.764-1.607-0.816-2.268,0.387c-1.732,3.158-4.086,5.729-7.912,7.42
		C627.248,323.665,633.836,322.142,640.242,319.685 M644.094,317.968c6.186-2.629,11.631-6.273,16.422-10.982
		c-3.406,1.559-6.805,1.135-10.195,0.223c-1.434-0.385-2.045,0.021-2.227,1.545C647.684,312.187,646.51,315.331,644.094,317.968
		 M591.254,266.115c-0.1,0.365,0.104,0.595,0.398,0.698c1.627,0.57,3.236,1.22,4.902,1.64c1.016,0.257,3.326-3.233,2.633-3.975
		c-0.943-1.008-1.963-2.099-3.441-2.346C595.238,262.047,591.314,265.665,591.254,266.115 M633.252,281.165
		c-0.123-1.067,0.18-2.648-0.783-3.632c-0.887-0.905-2.424-1.097-3.641-0.694c-1.463,0.483-1.17,2.141-1.516,3.313
		c-0.352,1.182,0.73,1.504,1.516,1.92c0.668,0.354,1.355,0.676,2.047,0.983C633.289,284.132,633.316,284.109,633.252,281.165
		 M619.064,282.8c-0.043,0.979,0.594,1.479,1.104,1.998c0.986,1.002,1.686,3.041,2.959,2.803c1.252-0.233,1.268-2.357,1.734-3.676
		c0.297-0.832,1.119-1.867-0.043-2.646c-1.035-0.692-2.127-1.96-3.35-1.505C620.262,280.224,619.615,281.657,619.064,282.8
		 M633.258,240.756c0.049-2.695-0.051-2.762-2.543-1.597c-0.814,0.382-1.609,0.802-2.412,1.205
		c-1.994,1.001-0.641,2.466-0.469,3.724c0.166,1.203,0.99,1.488,2.152,1.33C632.811,245.032,633.189,244.537,633.258,240.756
		 M596.523,253.527c-1.621,0.611-3.313,1.236-4.992,1.893c-0.307,0.121-0.453,0.483-0.232,0.742
		c1.227,1.443,2.627,2.771,4.275,3.631c1.168,0.607,1.91-0.869,2.832-1.414c0.652-0.385,1.344-0.974,0.729-1.822
		C598.379,255.518,598.23,253.938,596.523,253.527 M598.066,276.399c1.088-0.131,2.592,0.196,3.615-0.898
		c0.91-0.972,0.676-3.813-0.184-4.285c-2.373-1.308-3.664-0.996-4.754,1.152c-0.238,0.473-0.479,0.945-0.693,1.428
		C594.871,276.433,594.891,276.458,598.066,276.399 M622.998,234.34c-0.221,0.182-0.533,0.384-0.775,0.65
		c-0.857,0.942-1.705,1.895-2.525,2.869c-0.41,0.488-1.189,1.01-0.58,1.709c0.867,0.995,1.311,2.867,2.621,2.837
		c1.346-0.03,2.828-0.938,3.584-2.351c0.258-0.481-1.621-5.489-1.988-5.631C623.268,234.397,623.193,234.388,622.998,234.34
		 M598.119,245.795c-3.186-0.061-3.189-0.059-1.857,2.933c0.275,0.62,0.574,1.229,0.887,1.832c0.244,0.469,0.506,0.938,1.066,1.108
		c2.014,0.606,3.969-1.216,3.895-3.254C602,245.452,599.982,245.842,598.119,245.795 M602.621,241.391
		c0.094,3.588,0.195,3.66,3.396,3.988c2.518,0.258,1.785-1.922,2.396-3.08c0.52-0.983-0.037-1.558-0.893-1.954
		c-0.961-0.446-1.953-0.837-2.875-1.351c-1.502-0.835-2.266-0.644-2.031,1.262C602.66,240.629,602.621,241.013,602.621,241.391
		 M638.172,276.405c2.799,0.04,2.805,0.038,1.617-2.445c-0.422-0.884-0.877-1.75-1.316-2.625c-0.762-1.509-1.92-0.726-2.951-0.482
		c-1.027,0.243-2,0.458-1.979,1.964C633.584,275.695,634.34,276.351,638.172,276.405 M602.648,280.346
		c-0.078,3.817-0.078,3.817,2.928,2.364c0.068-0.033,0.135-0.065,0.203-0.098c1.709-0.813,3.523-1.379,2.379-4.077
		c-0.631-1.489-1.311-1.911-2.818-1.786C602.682,276.968,602.438,278.659,602.648,280.346 M633.584,249.172
		c-0.313,1.209,0.381,1.843,1.609,2.043c1.225,0.199,2.639,1.291,3.453-0.679c0.201-0.485,0.467-0.946,0.699-1.419
		c1.678-3.426,1.678-3.426-2.236-3.316C634.246,245.881,633.789,246.301,633.584,249.172 M614.1,279.685
		c-2.398,0.173-3.908,2.313-3.197,4.255c0.482,1.315,0.531,3.371,1.785,3.649c0.994,0.221,1.91-1.668,2.822-2.656
		c0.256-0.278,0.488-0.579,0.748-0.854c0.615-0.651,0.676-1.337,0.1-2.028C615.609,281.156,615.148,279.942,614.1,279.685
		 M644.426,255.987c-0.09-0.913-5.209-2.731-5.951-2.144c-1.029,0.813-1.83,2.046-1.902,3.251c-0.084,1.444,1.604,1.821,2.584,2.555
		c1.098,0.82,1.789-0.253,2.506-0.853c0.754-0.629,1.461-1.318,2.162-2.008C644.082,256.532,644.268,256.2,644.426,255.987
		 M614.313,242.494c0.842-0.558,1.42-1.727,2.219-2.675c0.654-0.778,0.125-1.418-0.412-1.967c-1.143-1.168-2.111-3.378-3.436-3.25
		c-1.26,0.122-1.363,2.567-1.877,4.024C610.26,240.172,612.211,242.51,614.313,242.494 M644.623,266.031
		c-1.133-1.028-2.322-2.071-3.473-3.159c-1.652-1.561-2.535,0.196-3.668,0.828c-1.242,0.691-1.176,1.627-0.402,2.628
		c0.611,0.789,0.734,2.257,2.094,2.077c1.873-0.246,3.65-0.938,5.322-1.85C644.58,266.511,644.566,266.288,644.623,266.031
		 M646.453,234.291c-0.578,1.019-1.166,2.002-0.609,2.742c1.816,2.424,3.402,4.987,5.049,7.521c0.484,0.745,1.58,0.749,2.266,0.278
		c0.613-0.421,0.012-1.099-0.25-1.603C651.23,240.004,649.27,236.978,646.453,234.291 M656.998,257.629
		c-0.205-3.164-0.902-6.162-1.865-9.112c-0.4-1.228-0.904-1.205-1.688-0.304c-0.555,0.638-0.662,1.252-0.418,2.068
		c0.717,2.383,1.271,4.811,1.451,7.301c0.084,1.188,0.879,1.973,1.828,1.951C657.623,259.504,656.711,258.237,656.998,257.629
		 M654.592,275.024c1.383-3.7,2.328-7.378,2.41-11.252c0.01-0.436,0.111-1.041-0.449-1.132c-0.385-0.062-0.848,0.204-1.238,0.395
		c-0.711,0.349-0.781,1.028-0.848,1.729c-0.205,2.107-0.521,4.208-1.225,6.203C652.654,272.643,653.076,273.869,654.592,275.024
		 M646.475,287.88c2.783-2.845,4.865-5.938,6.557-9.312c0.195-0.39,0.543-0.892,0.119-1.213c-0.301-0.228-0.846-0.175-1.281-0.175
		c-0.904-0.002-1.217,0.71-1.633,1.353c-1.182,1.83-2.313,3.708-3.664,5.408C645.572,285.198,645.453,286.304,646.475,287.88
		 M644.666,289.632c-1.457-1.024-2.625-0.943-3.953,0.135c-1.629,1.32-3.389,2.516-5.215,3.548
		c-1.424,0.803-1.748,1.798-1.398,3.408C638.057,294.824,641.639,292.718,644.666,289.632 M644.695,232.439
		c-2.746-2.682-5.881-4.741-9.248-6.471c-0.389-0.199-0.922-0.493-1.23-0.063c-0.227,0.312-0.18,0.853-0.182,1.29
		c-0.002,0.928,0.736,1.262,1.408,1.604c1.83,0.935,3.563,2.035,5.092,3.391C641.867,233.369,643.146,233.512,644.695,232.439
		 M621.686,222.102c-0.672,0.302-2.025-0.658-2.143,0.663c-0.104,1.185,1.088,1.704,2.236,1.786
		c2.199,0.158,4.332,0.644,6.447,1.228c0.66,0.183,1.338,0.381,1.996,0.069c0.535-0.256,1.227-0.531,1.201-1.211
		c-0.023-0.641-0.76-0.633-1.236-0.783C627.443,222.988,624.65,222.345,621.686,222.102 M621.074,300.076
		c2.961-0.379,5.945-0.819,8.822-1.776c0.588-0.196,1.633-0.182,1.418-1.014c-0.188-0.717-1.016-1.496-1.924-1.254
		c-2.848,0.762-5.711,1.377-8.639,1.734c-0.818,0.1-1.34,0.933-1.314,1.658C619.473,300.478,620.475,299.868,621.074,300.076
		 M614.383,222.105c-2.811,0.288-5.605,0.839-8.324,1.739c-0.6,0.198-1.68,0.172-1.51,0.967c0.193,0.914,1.184,1.374,2.174,1.142
		c2.631-0.617,5.244-1.271,7.949-1.537c0.934-0.093,1.848-0.867,1.693-1.806C616.203,221.627,615.094,222.312,614.383,222.105
		 M604.297,297.552c3.639,1.537,7.266,2.137,10.949,2.477c0.404,0.037,1.01,0.216,1.148-0.373c0.07-0.294-0.193-0.689-0.359-1.012
		c-0.34-0.654-0.893-0.962-1.643-1.014c-2.42-0.168-4.773-0.715-7.092-1.393C606.027,295.865,605.107,296.194,604.297,297.552
		 M593.064,233.315c0.389-0.114,0.82-0.122,1.082-0.336c2.168-1.769,4.506-3.278,6.908-4.697c0.475-0.28,0.719-0.764,0.797-1.311
		c0.139-0.978-0.076-1.542-1.193-0.97c-3.031,1.555-5.848,3.428-8.391,5.695c-0.307,0.272-0.852,0.62-0.414,1.096
		C592.121,233.084,592.643,233.145,593.064,233.315 M583.842,245.01c0.809,0.019,1.209-0.523,1.547-1.137
		c1.203-2.188,2.561-4.271,4.17-6.182c0.537-0.638,0.668-1.347,0.426-2.114c-0.24-0.754-0.676-1.026-1.283-0.321
		c-2.225,2.582-4.174,5.352-5.629,8.444C582.715,244.459,582.773,245.053,583.842,245.01 M593.133,288.822
		c-0.473,0.185-1.121,0.017-1.395,0.582c-0.205,0.422,0.174,0.691,0.455,0.927c2.543,2.148,5.193,4.145,8.227,5.566
		c0.383,0.18,0.832,0.529,1.24,0.119c0.361-0.361,0.213-0.852,0.082-1.283C601.59,294.229,593.664,288.813,593.133,288.822
		 M583.676,277.184c-1.191,0.11-0.797,0.835-0.498,1.44c1.443,2.938,3.301,5.603,5.408,8.1c0.234,0.277,0.516,0.72,0.9,0.504
		c0.271-0.152,0.428-0.602,0.529-0.949c0.211-0.709-0.039-1.327-0.492-1.893c-1.52-1.894-2.881-3.892-4.055-6.019
		C585.086,277.679,584.586,277.122,583.676,277.184 M579.027,263.968c0.391,2.955,0.783,5.94,1.783,8.799
		c0.203,0.576,0.166,1.641,1.043,1.427c0.871-0.212,1.094-1.192,0.926-2.069c-0.414-2.14-0.918-4.262-1.305-6.406
		c-0.146-0.812-0.092-1.674-0.627-2.359c-0.324-0.415-0.789-0.834-1.328-0.734C578.775,262.762,579.133,263.468,579.027,263.968
		 M579.053,259.592c1.689-0.25,2.219-1.264,2.322-2.538c0.18-2.186,0.719-4.289,1.27-6.396c0.191-0.735,0.369-1.475-0.111-2.17
		c-0.51-0.737-1.09-0.928-1.438,0.069C579.861,252.092,579.098,255.715,579.053,259.592 M601.434,232.504
		c-0.209-0.707,0.564-2.006-0.402-2.491c-0.756-0.38-1.607,0.626-2.332,1.136c-1.086,0.766-3.047,1.275-2.896,2.538
		c0.154,1.288,2.236,1.147,3.422,1.745c1.695,0.854,2.381,0.224,2.213-1.583C601.402,233.474,601.434,233.092,601.434,232.504
		 M653.154,256.104c-0.23-1.095-0.564-2.798-0.965-4.486c-0.152-0.645-0.49-1.241-1.209-0.442c-1.154,1.281-3.07,2.531-3.172,3.906
		c-0.09,1.183,2.518,1.402,3.842,2.215c0.127,0.078,0.287,0.101,0.418,0.173C652.924,257.938,653.355,257.76,653.154,256.104
		 M645.107,238.271c-0.344,0.874-0.604,1.479-0.822,2.098c-1.563,4.447-1.561,4.416,3.184,4.251
		c1.373-0.048,1.863-0.378,1.027-1.689C647.535,241.418,646.637,239.864,645.107,238.271 M601.439,289.577
		c0.002-4.447-0.168-3.74-2.537-2.722c-1.109,0.478-3.072,0.272-3.109,1.675c-0.029,1.123,1.729,1.707,2.807,2.365
		c0.813,0.496,1.693,1.625,2.502,1.222C601.984,291.679,601.244,290.337,601.439,289.577 M628.498,294.798
		c-1.469-1.346-2.699-2.444-3.896-3.58c-0.57-0.543-1.012-0.603-1.373,0.179c-0.602,1.297-1.201,2.594-1.793,3.894
		c-0.35,0.765-0.115,1.229,0.746,1.078C624.223,296.013,626.34,295.919,628.498,294.798 M589.441,244.59
		c3.584-0.033,3.625-0.051,2.613-2.594c-0.432-1.087-0.365-2.992-1.5-3.041c-1.332-0.058-1.893,1.748-2.535,2.899
		c-0.451,0.805-1.703,1.578-1.072,2.513C587.404,245.045,588.66,244.496,589.441,244.59 M622.906,225.815
		c-0.586,0.021-1.156-0.235-1.539,0.294c-0.178,0.245,1.787,4.589,2.152,4.873c0.471,0.368,0.871,0.159,1.176-0.188
		c1.107-1.254,3.266-2.096,3.266-3.588c-0.002-0.896-2.609-0.817-4.031-1.229C623.572,225.875,623.189,225.807,622.906,225.815
		 M634.477,229.496c0.041,8.506-0.77,6.688,4.689,5.008c0.072-0.021,0.139-0.058,0.209-0.084c0.982-0.354,1.244-0.857,0.262-1.521
		C637.977,231.779,636.293,230.691,634.477,229.496 M586.42,277.624c0.531,0.938,0.865,1.711,1.363,2.359
		c0.895,1.168,1.402,3.424,2.785,3.209c1.305-0.203,1.178-2.539,1.801-3.886c0.51-1.105,0.193-1.726-1.133-1.692
		C589.732,277.652,588.225,277.624,586.42,277.624 M582.633,266.235c0.664,1.456,0.041,3.564,1.781,4.835
		c0.188,0.138,3.945-3.806,3.797-3.965c-1.266-1.337-3.045-1.795-4.67-2.427C582.525,264.283,582.738,265.403,582.633,266.235
		 M651.643,271.68c1.066-2.125,1.168-4.166,1.537-6.126c0.178-0.954-0.451-1.186-1.271-0.793c-1.412,0.678-3.461,1.044-4.039,2.162
		c-0.57,1.104,1.617,1.996,2.363,3.168C650.545,270.585,651.014,270.98,651.643,271.68 M645.225,283.995
		c1.23-1.798,2.215-3.226,3.191-4.66c0.738-1.086,0.789-1.83-0.865-1.767c-5.723,0.22-4.943-0.755-3.154,4.47
		C644.586,282.593,644.852,283.122,645.225,283.995 M614.299,226.854c0.16-0.792-0.145-1.052-0.697-1.034
		c-1.9,0.063-3.723,0.566-5.541,1.063c-0.299,0.082-0.576,0.438-0.359,0.691c1.182,1.373,2.553,2.547,4.039,3.576
		c0.27,0.186,0.582-0.073,0.721-0.366C613.107,229.42,613.74,228.051,614.299,226.854 M612.662,296.247
		c1.553,0.252,2.068-0.08,1.488-1.267c-2.66-5.458-1.418-5.001-5.588-1.36c-0.115,0.101-0.217,0.213-0.334,0.309
		c-0.977,0.798-0.549,1.264,0.404,1.486C610.104,295.761,611.592,296.029,612.662,296.247 M584.119,250.795
		c-0.787,0.468-0.746,1.496-0.861,2.285c-0.215,1.434-1.451,3.416-0.184,4.2c1.182,0.732,2.773-1.034,4.262-1.5
		c0.346-0.108,0.68-0.342,0.693-0.794C588.037,254.691,584.6,250.823,584.119,250.795 M634.477,289.376
		c0.104,0.631-0.51,1.803,0.26,2.49c0.656,0.587,1.365-0.318,1.945-0.711c1.219-0.829,3.496-1.439,3.289-2.683
		c-0.232-1.394-2.625-1.276-4.004-1.976c-1.043-0.527-1.566-0.238-1.494,0.978C634.502,288.001,634.477,288.528,634.477,289.376"/>
	<g>
		<path d="M202.837,372.734c2.015,2.316,2.216,5.037,0.705,7.656c-2.317,3.928-7.757,6.447-12.189,6.145
			c-10.074-0.604-12.793-15.514-5.037-21.256c-3.224-2.72-4.433-6.75-4.03-10.879c0.504-5.239,3.828-9.269,9.268-10.679
			c5.037-1.209,11.283,0.604,10.98,6.749c-0.202,5.138-5.641,7.857-8.664,3.324c-0.503-0.604,0.403-1.209,0.806-0.504
			c2.519,3.526,6.548,1.008,6.75-2.921c0.302-5.238-4.835-6.851-9.066-4.735c-3.728,1.914-5.843,5.239-6.146,9.168
			c-0.302,3.324,0.504,6.548,2.821,9.066c0.907-0.402,2.821-0.906,4.634-1.008c6.246-0.302,5.943,4.434,0.302,5.037
			c-1.713,0.201-3.425-0.201-5.037-0.906c-4.936,4.734-4.13,15.715,2.619,17.73c4.03,1.208,8.966-1.512,10.98-4.938
			c1.31-2.216,1.209-4.432-0.503-6.346C201.528,372.835,202.333,372.13,202.837,372.734z M191.152,365.48
			c0.907,0.504,1.813,0.807,2.921,1.008c3.324,0.504,4.936-2.922,0-2.015C192.965,364.675,191.958,365.078,191.152,365.48z"/>
		<path d="M237.691,368.805c-1.813,3.325-8.563,11.888-12.492,7.254c-0.302-0.402-0.705-0.906-1.007-1.512
			c-1.41,3.426-3.224,6.851-5.138,10.074c-0.201,0.403-0.907,0.403-1.108,0c-2.116-3.324-4.03-6.75-5.44-10.376
			c-0.806-2.015-1.41-3.929-1.914-6.044c-0.403-1.813-0.806-3.828-0.907-5.844c-0.403-4.835,3.828-2.719,4.03-0.1
			c0.302,3.626,1.007,6.951,2.216,10.174c1.007,2.82,2.317,5.541,3.828,8.261c1.411-2.519,2.62-5.036,3.728-7.656
			c-1.31-3.122-1.914-7.454-1.712-10.778c0.302-6.146,6.145-5.844,6.044,0c-0.101,3.324-1.612,7.857-2.921,10.778
			c0.302,1.008,0.706,1.713,1.209,2.216c3.425,3.526,9.167-4.533,10.578-7.051L237.691,368.805z M224.292,370.82
			c0.706-1.713,1.411-3.728,1.713-5.439c1.007-5.742-2.619-5.541-2.619-0.404C223.386,366.287,223.688,367.898,224.292,370.82z"/>
		<path d="M260.858,368.705c-2.72,5.842-5.943,12.189-11.686,15.312c-6.246,3.425-10.88,1.713-13.096-2.015
			c-2.619-4.332-2.015-9.872,0.604-13.801c1.612-2.418,4.029-4.131,6.85-4.635c4.03-0.705,9.167,1.814,6.951,6.348
			c-1.914,3.828-8.764,7.051-11.988,7.756c0.705,5.844,5.439,7.152,10.174,4.836c5.339-2.519,8.462-9.268,10.98-14.305
			L260.858,368.705z M238.394,376.361c2.519-0.605,7.354-3.123,9.57-5.742c2.519-3.022-0.202-5.34-3.526-4.332
			C240.005,367.597,238.293,372.23,238.394,376.361z"/>
		<path d="M292.086,368.705c-2.317,4.936-4.937,11.383-8.966,15.312c-2.72,2.62-6.347,4.03-7.656-0.705
			c-1.108-4.231-0.504-8.765-0.504-13.397c0-2.52-1.31-2.52-2.619-1.109c-3.929,4.131-7.354,11.484-9.268,16.824
			c-2.015,5.742-4.433,2.922-4.231-0.906l0.806-16.521l0.202-3.728c0.201-3.526,4.13-1.612,4.029,1.108l-0.907,16.521
			c1.813-4.534,5.642-12.492,9.671-15.414c2.015-1.511,4.533-1.713,5.541-0.201c2.015,3.022,0.202,10.376,1.008,15.111
			c0.403,2.518,1.712,2.316,3.123,1.209c3.425-2.721,6.75-10.578,8.563-14.607L292.086,368.705z"/>
		<path d="M290.977,350.471l0.101-6.246c0-3.727,4.231-1.209,4.029,0.403c0,1.511-0.101,3.022-0.101,4.533
			c3.828-1.31,7.455-2.619,10.477-1.612c0.302,0.102,1.007,1.914-0.101,1.512c-2.619-1.008-6.347,0.303-10.376,1.611
			c-0.101,12.09-0.302,23.674,0,28.812c0.403,7.556,4.734,2.72,6.85-0.806c1.914-3.123,3.828-7.354,5.339-10.477l1.208,0.402
			c-1.41,3.022-3.324,7.254-5.44,10.679c-1.611,2.619-5.339,7.556-8.663,7.052c-1.511-0.303-2.72-1.813-3.022-5.138
			c-0.403-4.332-0.403-8.663-0.403-13.097l0.101-16.319c-3.929,0.907-7.958,0.907-11.283-2.216
			c-1.007-0.906,0.302-1.713,0.806-1.108C283.321,351.78,287.048,351.579,290.977,350.471z"/>
		<path d="M349.301,373.137c0.907-0.302,1.813-0.705,2.82-1.007c0.706-0.302,1.108,0.806,0.403,1.108
			c-1.209,0.402-2.216,0.806-3.224,1.209c-0.302,4.835-0.604,13.196-4.433,16.621c-5.642,5.037-10.578-1.41-9.167-6.548
			c0.806-2.921,3.727-6.347,9.469-9.368c0.302-4.533,0.302-8.765,0.202-13.298c-6.347,0.604-9.369-6.347-7.153-12.189
			c1.813-4.835,6.347-7.253,11.384-6.951c7.555,0.504,14.607,6.649,14.607,14.507c0,7.756-6.85,13.196-14.305,13.196
			c-0.202,0-0.302-0.101-0.403-0.201C349.502,371.223,349.402,372.23,349.301,373.137z M336.81,384.822
			c-0.806,3.225,1.914,8.262,5.037,4.836c2.72-2.922,2.921-9.369,3.224-13.197C340.033,379.282,337.515,382.203,336.81,384.822z
			 M348.797,346.542c0.202,4.13,0.403,8.261,0.504,12.392c0.604-0.504,1.007-1.209,1.31-1.914c0.201-0.807,1.31-0.403,1.108,0.302
			c-0.403,1.31-1.31,2.317-2.317,3.122c0.101,2.922,0.101,5.944,0.101,8.563c5.843-0.907,10.679-5.642,10.679-11.786
			c0-5.742-5.138-11.787-10.779-12.895c-4.433-0.906-8.462,1.611-10.074,5.843c-1.813,4.835,0.403,11.081,6.044,10.477
			c-0.202-4.735-0.403-9.57-0.604-14.305C344.365,343.218,348.697,344.83,348.797,346.542z"/>
		<path d="M390.601,368.705c-1.712,3.727-4.835,10.678-9.066,14.707c-4.734,4.533-11.686,4.734-12.995-2.921
			c-0.504-2.72-0.302-7.455-0.302-12.29c0-6.347,0.504-11.484,0.907-16.622c0.503-6.347,1.813-16.219,7.152-20.45
			c3.929-3.123,9.066-3.123,9.167,2.721c0.202,8.059-8.563,23.17-12.793,30.725c-0.101,4.533-0.504,9.671-0.302,14.204
			c0.302,5.944,4.13,7.656,8.563,3.123c3.929-4.03,7.354-11.484,8.462-13.7L390.601,368.705z M384.154,333.949
			c-0.101-4.029-2.619-3.525-4.835-1.309c-4.634,4.634-5.641,12.793-6.145,19.039c-0.101,1.512-0.302,5.34-0.403,10.074
			C376.296,355.407,384.355,340.9,384.154,333.949z"/>
		<path d="M414.878,379.383c-1.612,2.619-5.34,7.455-8.765,6.951c-1.511-0.201-2.619-1.713-2.921-5.037
			c-0.403-4.332,0.101-8.966,0.201-13.297c-1.712,4.029-3.425,9.368-5.943,12.895c-7.052,9.771-15.01-5.541-8.059-12.693
			c3.425-3.526,9.671-4.937,12.693-0.504c0.403-1.008,0.907-2.619,1.511-3.324c1.612-2.016,3.828,0.302,3.828,2.418
			c0,4.331-0.403,8.461-0.302,12.895c0.202,7.656,4.634,2.316,6.548-0.907c1.915-3.224,3.727-7.354,5.339-10.577
			c0,0,0.101,0,1.209,0.504C418.807,371.727,416.893,375.958,414.878,379.383z M400.976,368.503
			c-2.821-4.734-9.066,0.202-10.175,4.735c-1.208,4.633,1.511,13.096,5.944,6.245c2.015-3.022,3.425-7.052,4.735-10.376
			C401.178,369.007,401.178,368.705,400.976,368.503z"/>
		<path d="M451.443,368.705c-2.316,4.936-4.936,11.383-8.965,15.312c-2.721,2.62-6.346,4.03-7.656-0.705
			c-1.107-4.231-0.504-8.765-0.504-13.397c0-2.52-1.309-2.52-2.619-1.109c-3.928,4.131-7.354,11.484-9.268,16.824
			c-2.015,5.742-4.433,2.922-4.23-0.906l0.806-16.521l0.201-3.728c0.202-3.526,4.131-1.612,4.03,1.108l-0.907,16.521
			c1.813-4.534,5.642-12.492,9.671-15.414c2.014-1.511,4.533-1.713,5.541-0.201c2.014,3.022,0.201,10.376,1.006,15.111
			c0.404,2.518,1.713,2.316,3.123,1.209c3.426-2.721,6.75-10.578,8.563-14.607L451.443,368.705z"/>
		<path d="M482.672,368.705c-2.316,4.936-4.936,11.383-8.967,15.312c-2.719,2.62-6.346,4.03-7.654-0.705
			c-1.109-4.231-0.504-8.765-0.504-13.397c0-2.52-1.311-2.52-2.619-1.109c-3.93,4.131-7.355,11.484-9.27,16.824
			c-2.014,5.742-4.432,2.922-4.23-0.906l0.807-16.521l0.201-3.728c0.201-3.526,4.131-1.612,4.029,1.108l-0.906,16.521
			c1.813-4.534,5.641-12.492,9.67-15.414c2.016-1.511,4.533-1.713,5.541-0.201c2.016,3.022,0.201,10.376,1.008,15.111
			c0.402,2.518,1.713,2.316,3.123,1.209c3.424-2.721,6.75-10.578,8.563-14.607L482.672,368.705z"/>
		<path d="M505.637,368.705c-2.719,5.842-5.943,12.189-11.686,15.312c-6.244,3.425-10.879,1.713-13.096-2.015
			c-2.619-4.332-2.014-9.872,0.605-13.801c1.611-2.418,4.029-4.131,6.85-4.635c4.029-0.705,9.168,1.814,6.951,6.348
			c-1.914,3.828-8.764,7.051-11.988,7.756c0.705,5.844,5.439,7.152,10.176,4.836c5.338-2.519,8.461-9.268,10.98-14.305
			L505.637,368.705z M483.174,376.361c2.518-0.605,7.354-3.123,9.568-5.742c2.52-3.022-0.201-5.34-3.525-4.332
			C484.785,367.597,483.072,372.23,483.174,376.361z"/>
		<path d="M531.527,368.805c-4.434,7.656-9.57,14.004-13.299,15.918c-7.051,3.727-11.482-1.713-9.871-8.262
			c0.604-2.417,1.813-4.835,3.123-6.749c-2.115-0.101-5.037-0.403-7.053-1.511c-1.611-0.807-2.719-2.217-2.719-4.332
			c0-5.138,7.354-2.619,4.533,2.922c1.209,0.906,6.043,0.705,8.461-1.612c2.318-2.317,4.836,0,3.525,1.31
			c-2.416,2.418-5.035,6.246-5.943,10.074c-0.906,3.929-0.805,10.074,5.34,7.051c3.525-1.712,8.463-8.059,12.793-15.412
			L531.527,368.805z M505.537,363.769c-0.203-1.108-1.814-1.511-1.512,0.302c0.102,0.604,0.402,1.209,1.107,2.016
			C505.537,365.179,505.637,364.373,505.537,363.769z"/>
	</g>
</g>
</svg>
